<?xml version="1.0" encoding="UTF-8" standalone="no"?><!DOCTYPE svg PUBLIC "-//W3C//DTD SVG 1.1//EN" "http://www.w3.org/Graphics/SVG/1.1/DTD/svg11.dtd"><svg width="100%" height="100%" viewBox="0 0 1596 1000" version="1.1" xmlns="http://www.w3.org/2000/svg" xmlns:xlink="http://www.w3.org/1999/xlink" xml:space="preserve" xmlns:serif="http://www.serif.com/" style="fill-rule:evenodd;clip-rule:evenodd;stroke-linejoin:round;stroke-miterlimit:2;"><rect id="画板1" x="0" y="0" width="1596" height="1000" style="fill:none;"/><g><g><path d="M1091.61,417l37.908,110.81l90.705,-110.81l209.609,0l-386.361,472l-161.469,-472l209.608,0Z" style="fill:#41b883;"/><path d="M1091.61,417l37.908,110.81l90.705,-110.81l101,0l-233.167,284.85l-97.446,-284.85l101,0Z" style="fill:#35495e;"/></g><g transform="matrix(1,0,-0.215164,1,-44.6677,145.094)"><text x="623.869px" y="747.908px" style="font-family:'SimSun';font-size:465px;fill:#bfbfbf;">（</text><text x="1451.24px" y="747.908px" style="font-family:'SimSun';font-size:465px;fill:#bfbfbf;">）</text></g><path d="M508.596,438.406c-46.663,88.969 -72.483,133.454 -77.46,133.454c-3.111,0 -4.666,-5.133 -4.666,-15.399c0,-10.265 1.866,-19.131 5.599,-26.597c30.486,-52.262 53.506,-102.035 69.061,-149.32c2.488,-8.088 5.288,-13.532 8.399,-16.331c3.111,-2.8 8.399,-4.2 15.865,-4.2l7.466,0l82.126,6.533c3.733,-9.333 10.11,-26.442 19.131,-51.329c9.022,-24.887 16.021,-43.863 20.998,-56.928c4.978,-13.066 12.444,-30.797 22.398,-53.195c9.955,-22.398 18.976,-40.13 27.065,-53.195c8.088,-13.066 18.664,-27.842 31.73,-44.33c13.065,-16.487 26.131,-29.086 39.196,-37.796c31.731,-21.154 65.95,-31.73 102.658,-31.73c64.705,0 97.057,23.953 97.057,71.86c0,18.042 -5.133,34.219 -15.398,48.528c-10.266,14.31 -23.798,21.465 -40.597,21.465c-8.088,0 -15.087,-2.177 -20.998,-6.533c-5.91,-4.355 -8.866,-9.488 -8.866,-15.398c0,-5.911 4.667,-15.554 13.999,-28.931c9.333,-13.376 13.999,-24.886 13.999,-34.53c0,-9.644 -3.889,-17.576 -11.666,-23.798c-7.777,-6.221 -16.954,-9.332 -27.53,-9.332c-18.665,0 -37.33,9.954 -55.995,29.864c-18.665,19.909 -35.775,46.04 -51.329,78.392c-27.375,56.617 -51.951,116.967 -73.726,181.05c-0.623,3.111 -1.245,5.289 -1.867,6.533c-1.866,4.977 -3.422,9.333 -4.666,13.066c98.302,0 154.297,-4.356 167.984,-13.066c-8.088,19.909 -25.508,32.975 -52.262,39.197c-26.753,6.221 -69.682,9.954 -128.788,11.199l-27.064,78.392c-38.574,110.746 -68.438,186.805 -89.592,228.179c-21.153,41.374 -41.218,76.993 -60.194,106.857c-18.976,29.864 -37.797,54.439 -56.461,73.727c-42.308,44.795 -86.17,67.193 -131.588,67.193c-30.486,0 -53.04,-7.154 -67.661,-21.464c-14.621,-14.31 -21.931,-30.331 -21.931,-48.063c0,-17.731 4.044,-32.508 12.132,-44.329c8.088,-11.821 17.11,-17.731 27.064,-17.731c9.955,0 17.421,2.333 22.398,6.999c4.978,4.666 7.466,9.643 7.466,14.932c0,5.288 -3.266,13.687 -9.799,25.198c-6.533,11.51 -9.799,21.309 -9.799,29.397c0,8.088 2.178,14.932 6.533,20.531c4.355,5.6 12.132,8.399 23.331,8.399c11.199,0 24.42,-5.443 39.663,-16.331c15.243,-10.888 30.019,-26.598 44.329,-47.129c53.506,-79.015 124.122,-233.623 211.847,-463.824l-26.131,0c-31.73,0 -52.884,9.954 -63.46,29.864Z" style="fill:#35495e;fill-rule:nonzero;"/></g></svg>